HIERARCHY
ROOT Hips
{
 OFFSET -42.198200226 91.614723206 -40.067840576
 CHANNELS 6 Xposition Yposition Zposition Zrotation Yrotation Xrotation
 JOINT LeftUpLeg
 {
  OFFSET 0.103455998 1.857828975 10.548505783
  CHANNELS 3 Zrotation Yrotation Xrotation
  JOINT LeftLeg
  {
   OFFSET 43.499992371 -3.8e-05 -2e-06
   CHANNELS 3 Zrotation Yrotation Xrotation
   JOINT LeftFoot
   {
    OFFSET 42.372192383 1.5e-05 -7e-06
    CHANNELS 3 Zrotation Yrotation Xrotation
    JOINT LeftToe
    {
     OFFSET 17.299999237 -2e-06 3e-06
     CHANNELS 3 Zrotation Yrotation Xrotation
     End Site
     {
      OFFSET 0.0 0.0 0.0
     }
    }
   }
  }
 }
 JOINT RightUpLeg
 {
  OFFSET 0.103456996 1.857828975 -10.548502922
  CHANNELS 3 Zrotation Yrotation Xrotation
  JOINT RightLeg
  {
   OFFSET 43.500041962 -2.7e-05 8e-06
   CHANNELS 3 Zrotation Yrotation Xrotation
   JOINT RightFoot
   {
    OFFSET 42.372257233 -8e-06 1.4e-05
    CHANNELS 3 Zrotation Yrotation Xrotation
    JOINT RightToe
    {
     OFFSET 17.299991608 -5e-06 4e-06
     CHANNELS 3 Zrotation Yrotation Xrotation
     End Site
     {
      OFFSET 0.0 0.0 0.0
     }
    }
   }
  }
 }
 JOINT Spine
 {
  OFFSET 6.901968002 -2.603733063 -1e-06
  CHANNELS 3 Zrotation Yrotation Xrotation
  JOINT Spine1
  {
   OFFSET 12.588098526 2e-06 0.0
   CHANNELS 3 Zrotation Yrotation Xrotation
   JOINT Spine2
   {
    OFFSET 12.343206406 0.0 -1e-06
    CHANNELS 3 Zrotation Yrotation Xrotation
    JOINT Neck
    {
     OFFSET 25.832885742 -4e-06 3e-06
     CHANNELS 3 Zrotation Yrotation Xrotation
     JOINT Head
     {
      OFFSET 11.766619682 5e-06 -1e-06
      CHANNELS 3 Zrotation Yrotation Xrotation
      End Site
      {
       OFFSET 0.0 0.0 0.0
      }
     }
    }
    JOINT LeftShoulder
    {
     OFFSET 19.7458992 -1.480370045 6.000107765
     CHANNELS 3 Zrotation Yrotation Xrotation
     JOINT LeftArm
     {
      OFFSET 11.284125328 -9e-06 -1.8e-05
      CHANNELS 3 Zrotation Yrotation Xrotation
      JOINT LeftForeArm
      {
       OFFSET 33.000049591 4e-06 3.2e-05
       CHANNELS 3 Zrotation Yrotation Xrotation
       JOINT LeftHand
       {
        OFFSET 25.200008392 1.5e-05 8e-06
        CHANNELS 3 Zrotation Yrotation Xrotation
        End Site
        {
         OFFSET 0.0 0.0 0.0
        }
       }
      }
     }
    }
    JOINT RightShoulder
    {
     OFFSET 19.746099472 -1.480375051 -6.000072956
     CHANNELS 3 Zrotation Yrotation Xrotation
     JOINT RightArm
     {
      OFFSET 11.284137726 -1.5e-05 -1.2e-05
      CHANNELS 3 Zrotation Yrotation Xrotation
      JOINT RightForeArm
      {
       OFFSET 33.000091553 1.7e-05 1.3e-05
       CHANNELS 3 Zrotation Yrotation Xrotation
       JOINT RightHand
       {
        OFFSET 25.19977951 0.000135 0.000422
        CHANNELS 3 Zrotation Yrotation Xrotation
        End Site
        {
         OFFSET 0.0 0.0 0.0
        }
       }
      }
     }
    }
   }
  }
 }
}
MOTION
Frames: 9
Frame Time: 0.033333
-133.822296143 87.235542297 -233.183502197 85.11882782 -0.650399983 130.863601685 176.971694946 -8.315306664 167.200317383 -55.006023407 2.670665741 1.583343863 72.458625793 -2.998276711 -5.658530712 21.454559326 0.003097 -1e-06 176.971694946 -8.315306664 167.200317383 -55.006023407 2.670665741 1.583343863 72.458625793 -2.998276711 -5.658530712 21.454559326 0.003097 -1e-06 176.971694946 -8.315306664 167.200317383 -55.006023407 2.670665741 1.583343863 72.458625793 -2.998276711 -5.658530712 21.454559326 0.003097 -1e-06 149.513778687 -4.893498898 -173.953384399 21.454559326 0.003097 -1e-06 149.513778687 -4.893498898 -173.953384399 -32.841060638 -2.205601215 6.116297245 81.229286194 -4.149710655 0.59447825 21.454559326 0.003097 -1e-06 149.513778687 -4.893498898 -173.953384399 -32.841060638 -2.205601215 6.116297245 81.229286194 -4.149710655 0.59447825 
-131.825500488 87.913238525 -230.682098389 84.958679199 -0.609836459 131.167495728 170.820388794 -9.133196831 170.146987915 -65.125923157 1.873775959 -0.503221035 68.543876648 -1.681663275 -5.57288456 21.454551697 0.003085 -1e-06 170.820388794 -9.133196831 170.146987915 -65.125923157 1.873775959 -0.503221035 68.543876648 -1.681663275 -5.57288456 21.454551697 0.003085 -1e-06 170.820388794 -9.133196831 170.146987915 -65.125923157 1.873775959 -0.503221035 68.543876648 -1.681663275 -5.57288456 21.454551697 0.003085 -1e-06 152.136245728 -4.874206543 -172.384750366 21.454551697 0.003085 -1e-06 152.136245728 -4.874206543 -172.384750366 -31.986373901 -2.61339736 5.344258308 83.020866394 -3.58408165 0.628295958 21.454551697 0.003085 -1e-06 152.136245728 -4.874206543 -172.384750366 -31.986373901 -2.61339736 5.344258308 83.020866394 -3.58408165 0.628295958 
-129.794494629 88.526031494 -228.249801636 84.883377075 -0.564343274 131.526504517 165.044937134 -9.591093063 171.31741333 -72.238464355 1.786789298 -1.895969152 71.620262146 -0.644370914 -5.928115845 21.454549789 0.00309 2e-06 165.044937134 -9.591093063 171.31741333 -72.238464355 1.786789298 -1.895969152 71.620262146 -0.644370914 -5.928115845 21.454549789 0.00309 2e-06 165.044937134 -9.591093063 171.31741333 -72.238464355 1.786789298 -1.895969152 71.620262146 -0.644370914 -5.928115845 21.454549789 0.00309 2e-06 154.857208252 -4.831303596 -172.160018921 21.454549789 0.00309 2e-06 154.857208252 -4.831303596 -172.160018921 -31.003192902 -2.423289537 5.265439034 84.566635132 -3.457285881 0.947028995 21.454549789 0.00309 2e-06 154.857208252 -4.831303596 -172.160018921 -31.003192902 -2.423289537 5.265439034 84.566635132 -3.457285881 0.947028995 
-127.65940094 89.171180725 -225.87159729 85.08757782 -0.816769719 131.699111938 159.463180542 -9.551692963 171.062484741 -75.784889221 2.013370991 -2.920248985 72.879058838 0.415755987 -5.068242073 21.454559326 0.003097 1e-06 159.463180542 -9.551692963 171.062484741 -75.784889221 2.013370991 -2.920248985 72.879058838 0.415755987 -5.068242073 21.454559326 0.003097 1e-06 159.463180542 -9.551692963 171.062484741 -75.784889221 2.013370991 -2.920248985 72.879058838 0.415755987 -5.068242073 21.454559326 0.003097 1e-06 157.671264648 -4.544094563 -173.019287109 21.454559326 0.003097 1e-06 157.671264648 -4.544094563 -173.019287109 -29.733032227 -2.02695179 5.598599434 85.750175476 -3.589217901 1.455556989 21.454559326 0.003097 1e-06 157.671264648 -4.544094563 -173.019287109 -29.733032227 -2.02695179 5.598599434 85.750175476 -3.589217901 1.455556989 
-125.34690094 89.692832947 -223.503494263 85.355209351 -1.059007764 131.815704346 154.523681641 -9.348500252 170.396057129 -76.083732605 2.236174583 -3.697823524 73.627563477 0.699851811 -6.033065319 21.454551697 0.003093 0.0 154.523681641 -9.348500252 170.396057129 -76.083732605 2.236174583 -3.697823524 73.627563477 0.699851811 -6.033065319 21.454551697 0.003093 0.0 154.523681641 -9.348500252 170.396057129 -76.083732605 2.236174583 -3.697823524 73.627563477 0.699851811 -6.033065319 21.454551697 0.003093 0.0 160.606384277 -4.174893379 -173.009384155 21.454551697 0.003093 0.0 160.606384277 -4.174893379 -173.009384155 -28.399524689 -2.142576694 5.488921165 86.958251953 -3.385615826 2.113151312 21.454551697 0.003093 0.0 160.606384277 -4.174893379 -173.009384155 -28.399524689 -2.142576694 5.488921165 86.958251953 -3.385615826 2.113151312 
-122.909896851 89.961662292 -221.114898682 85.510368347 -1.170089364 131.924301147 150.328140259 -9.174497604 169.656845093 -73.431060791 2.235810995 -3.92116642 74.806236267 0.966434717 -5.897352219 21.45454216 0.003089 0.0 150.328140259 -9.174497604 169.656845093 -73.431060791 2.235810995 -3.92116642 74.806236267 0.966434717 -5.897352219 21.45454216 0.003089 0.0 150.328140259 -9.174497604 169.656845093 -73.431060791 2.235810995 -3.92116642 74.806236267 0.966434717 -5.897352219 21.45454216 0.003089 0.0 163.514862061 -3.79369545 -172.567550659 21.45454216 0.003089 0.0 163.514862061 -3.79369545 -172.567550659 -27.291164398 -2.198739767 5.160399437 88.441940308 -3.058020115 2.728888273 21.45454216 0.003089 0.0 163.514862061 -3.79369545 -172.567550659 -27.291164398 -2.198739767 5.160399437 88.441940308 -3.058020115 2.728888273 
-120.415802002 89.958320618 -218.636306763 85.221115112 -1.117527366 131.968505859 146.77722168 -9.368894577 169.515060425 -68.271507263 1.826118946 -3.610188246 75.782272339 0.776618898 -6.033887386 21.454553604 0.003092 1e-06 146.77722168 -9.368894577 169.515060425 -68.271507263 1.826118946 -3.610188246 75.782272339 0.776618898 -6.033887386 21.454553604 0.003092 1e-06 146.77722168 -9.368894577 169.515060425 -68.271507263 1.826118946 -3.610188246 75.782272339 0.776618898 -6.033887386 21.454553604 0.003092 1e-06 166.230911255 -3.936395645 -172.043991089 21.454553604 0.003092 1e-06 166.230911255 -3.936395645 -172.043991089 -26.31155014 -2.385038614 4.848707676 90.063606262 -2.756269217 3.394912004 21.454553604 0.003092 1e-06 166.230911255 -3.936395645 -172.043991089 -26.31155014 -2.385038614 4.848707676 90.063606262 -2.756269217 3.394912004 
-117.753997803 89.764648438 -216.082000732 85.040176392 -0.977671266 131.875289917 144.598571777 -9.274513245 169.58392334 -60.61359787 1.319802165 -3.651685953 76.34223175 0.714033663 -6.554305077 21.454557419 0.003094 1e-06 144.598571777 -9.274513245 169.58392334 -60.61359787 1.319802165 -3.651685953 76.34223175 0.714033663 -6.554305077 21.454557419 0.003094 1e-06 144.598571777 -9.274513245 169.58392334 -60.61359787 1.319802165 -3.651685953 76.34223175 0.714033663 -6.554305077 21.454557419 0.003094 1e-06 169.096435547 -4.003690243 -171.67338562 21.454557419 0.003094 1e-06 169.096435547 -4.003690243 -171.67338562 -25.532211304 -2.498817682 4.535334587 91.802680969 -2.482626915 4.05749464 21.454557419 0.003094 1e-06 169.096435547 -4.003690243 -171.67338562 -25.532211304 -2.498817682 4.535334587 91.802680969 -2.482626915 4.05749464 
-114.944297791 89.365219116 -213.502807617 84.927246094 -0.895178854 131.676712036 143.710723877 -8.937610626 169.645812988 -50.574581146 0.74505192 -3.950278759 75.9141922 0.934675753 -6.54891634 21.454545975 0.00309 -1e-06 143.710723877 -8.937610626 169.645812988 -50.574581146 0.74505192 -3.950278759 75.9141922 0.934675753 -6.54891634 21.454545975 0.00309 -1e-06 143.710723877 -8.937610626 169.645812988 -50.574581146 0.74505192 -3.950278759 75.9141922 0.934675753 -6.54891634 21.454545975 0.00309 -1e-06 171.944290161 -3.926899433 -171.309799194 21.454545975 0.00309 -1e-06 171.944290161 -3.926899433 -171.309799194 -24.96918869 -2.677534342 4.167747974 93.785812378 -2.197453022 4.785593987 21.454545975 0.00309 -1e-06 171.944290161 -3.926899433 -171.309799194 -24.96918869 -2.677534342 4.167747974 93.785812378 -2.197453022 4.785593987 
